<svg xmlns="http://www.w3.org/2000/svg" viewBox="0 0 64 64">
    <g>
        <path fill="#9ca3af" d="M45 28c0-5.5-4.5-10-10-10-1.5 0-2.9.3-4.2.9C29.2 16.1 25.8 14 22 14c-5 0-9 4-9 9 0 .2 0 .5.1.7C10.9 25.1 9 27.4 9 30c0 3.3 2.7 6 6 6h26c4.4 0 8-3.6 8-8z"/>
        <g fill="#e0f2fe">
            <circle cx="20" cy="42" r="2"/>
            <circle cx="28" cy="44" r="2.5"/>
            <circle cx="36" cy="42" r="2"/>
            <circle cx="24" cy="50" r="2"/>
            <circle cx="32" cy="52" r="2.5"/>
        </g>
    </g>
</svg>
